# xmcd
#
# Track frame offsets:
#	150
#	11785
#	24151
#	36938
#	49229
#	60049
#	70890
#	84067
#	96345
#	106200
#
# Disc length: 1588 seconds
#
# Revision: 1
# Processed by: cddbd v1.5.2PL0 Copyright (c) Steve Scherf et al.
# Submitted via: audiograbber 1.83.01
#
DISCID=6f06320a
DTITLE=Hank Williams - Disk 2 of 3
DYEAR=1900
DGENRE=
TTITLE0=Kaw-Liga
TTITLE1=Honky Tonkin'
TTITLE2=I'm a Long Gone Daddy
TTITLE3=Half As Much
TTITLE4=I Can't Help It (If I'm Still in Love With You)
TTITLE5=Why Don't You Love Me
TTITLE6=Mind Your Own Buisness
TTITLE7=Lovesick Blues
TTITLE8=Honky Tonk Blues
TTITLE9=Jombalaya
EXTD=
EXTT0=
EXTT1=
EXTT2=
EXTT3=
EXTT4=
EXTT5=
EXTT6=
EXTT7=
EXTT8=
EXTT9=
PLAYORDER=
